<?xml version="1.0" encoding="UTF-8"?>
<svg xmlns="http://www.w3.org/2000/svg" xmlns:xlink="http://www.w3.org/1999/xlink" width="43px" height="48px" viewBox="0 0 43 47" version="1.1">
<g id="surface1">
<path style="fill:none;stroke-width:204.383;stroke-linecap:round;stroke-linejoin:miter;stroke:rgb(8.235294%,46.27451%,41.568627%);stroke-opacity:1;stroke-miterlimit:4;" d="M 1314.014989 2237.021443 C 1314.014989 2237.021443 1377.492733 2081.199884 1491.598474 1999.753657 C 1632.945676 1898.927942 1613.671057 1931.401679 1733.430687 1821.671875 C 1803.076308 1758.033826 1823.378906 1638.352394 1823.378906 1638.352394 " transform="matrix(0.0151997,0,0,0.0149159,0,0)"/>
<path style="fill:none;stroke-width:204.383;stroke-linecap:round;stroke-linejoin:miter;stroke:rgb(8.235294%,46.27451%,41.568627%);stroke-opacity:1;stroke-miterlimit:4;" d="M 1314.014989 1907.308261 C 1314.014989 1907.308261 1253.87818 1767.199801 1145.169331 1693.872008 C 1011.017987 1603.521692 1029.264626 1632.590924 915.415879 1534.122174 C 849.111192 1476.769365 830.093568 1369.134641 830.093568 1369.134641 " transform="matrix(0.0151997,0,0,0.0149159,0,0)"/>
<path style=" stroke:none;fill-rule:nonzero;fill:rgb(8.235294%,46.27451%,41.568627%);fill-opacity:1;" d="M 18.367188 45.46875 L 18.367188 46.992188 L 21.472656 46.992188 L 21.472656 45.46875 Z M 21.472656 18.550781 C 21.472656 17.710938 20.777344 17.027344 19.917969 17.027344 C 19.0625 17.027344 18.367188 17.710938 18.367188 18.550781 Z M 21.472656 45.46875 L 21.472656 18.550781 L 18.367188 18.550781 L 18.367188 45.46875 Z M 21.472656 45.46875 "/>
<path style=" stroke:none;fill-rule:nonzero;fill:rgb(5.098039%,73.72549%,57.647059%);fill-opacity:1;" d="M 9.433594 15.453125 C 9.433594 17.800781 7.496094 19.707031 5.101562 19.707031 C 2.707031 19.707031 0.765625 17.800781 0.765625 15.453125 C 0.765625 13.105469 2.707031 11.199219 5.101562 11.199219 C 7.496094 11.199219 9.433594 13.105469 9.433594 15.453125 Z M 9.433594 15.453125 "/>
<path style=" stroke:none;fill-rule:nonzero;fill:rgb(31.764706%,87.45098%,60.784314%);fill-opacity:1;" d="M 24.28125 7.285156 C 24.28125 11.308594 20.957031 14.570312 16.859375 14.570312 C 12.757812 14.570312 9.433594 11.308594 9.433594 7.285156 C 9.433594 3.261719 12.757812 0 16.859375 0 C 20.957031 0 24.28125 3.261719 24.28125 7.285156 Z M 24.28125 7.285156 "/>
<path style=" stroke:none;fill-rule:nonzero;fill:rgb(31.764706%,87.45098%,60.784314%);fill-opacity:1;" d="M 30.539062 17.324219 C 30.539062 19.089844 29.078125 20.523438 27.277344 20.523438 C 25.476562 20.523438 24.015625 19.089844 24.015625 17.324219 C 24.015625 15.554688 25.476562 14.125 27.277344 14.125 C 29.078125 14.125 30.539062 15.554688 30.539062 17.324219 Z M 30.539062 17.324219 "/>
<path style=" stroke:none;fill-rule:nonzero;fill:rgb(5.098039%,73.72549%,57.647059%);fill-opacity:1;" d="M 34.816406 8.722656 C 34.816406 10.863281 33.050781 12.597656 30.871094 12.597656 C 28.6875 12.597656 26.921875 10.863281 26.921875 8.722656 C 26.921875 6.585938 28.6875 4.851562 30.871094 4.851562 C 33.050781 4.851562 34.816406 6.585938 34.816406 8.722656 Z M 34.816406 8.722656 "/>
<path style=" stroke:none;fill-rule:nonzero;fill:rgb(5.098039%,73.72549%,57.647059%);fill-opacity:1;" d="M 38.613281 29.390625 C 38.613281 31.53125 36.84375 33.265625 34.664062 33.265625 C 32.484375 33.265625 30.71875 31.53125 30.71875 29.390625 C 30.71875 27.25 32.484375 25.515625 34.664062 25.515625 C 36.84375 25.515625 38.613281 27.25 38.613281 29.390625 Z M 38.613281 29.390625 "/>
<path style=" stroke:none;fill-rule:nonzero;fill:rgb(31.764706%,87.45098%,60.784314%);fill-opacity:1;" d="M 10.039062 26.851562 C 10.039062 29.574219 7.792969 31.777344 5.019531 31.777344 C 2.246094 31.777344 0 29.574219 0 26.851562 C 0 24.132812 2.246094 21.925781 5.019531 21.925781 C 7.792969 21.925781 10.039062 24.132812 10.039062 26.851562 Z M 10.039062 26.851562 "/>
<path style=" stroke:none;fill-rule:nonzero;fill:rgb(31.764706%,87.45098%,60.784314%);fill-opacity:1;" d="M 43 18.984375 C 43 21.726562 40.734375 23.953125 37.9375 23.953125 C 35.140625 23.953125 32.875 21.726562 32.875 18.984375 C 32.875 16.238281 35.140625 14.015625 37.9375 14.015625 C 40.734375 14.015625 43 16.238281 43 18.984375 Z M 43 18.984375 "/>
<path style=" stroke:none;fill-rule:nonzero;fill:rgb(31.764706%,87.45098%,60.784314%);fill-opacity:1;" d="M 15.824219 30.886719 C 15.824219 32.09375 14.824219 33.074219 13.59375 33.074219 C 12.359375 33.074219 11.359375 32.09375 11.359375 30.886719 C 11.359375 29.675781 12.359375 28.695312 13.59375 28.695312 C 14.824219 28.695312 15.824219 29.675781 15.824219 30.886719 Z M 15.824219 30.886719 "/>
</g>
</svg>
